<svg xmlns="http://www.w3.org/2000/svg" viewBox="0 0 794.53 564.21"><defs><style>.a,.b{fill:none;}.a,.d{stroke:#00a651;}.a,.b,.c,.d,.e{stroke-miterlimit:10;stroke-width:5px;}.b,.e{stroke:#1b75bc;}.c,.d,.e{fill:#fff;}.c{stroke:#231f20;}</style></defs><title>background</title><path class="a" d="M887.08-45.4c27.08,422.26-856.93,167.45-780,563.57" transform="translate(-95.65 45.56)"/><path class="b" d="M155.79-30.36C129,56.47,185,134.94,268.73,157.36c54.57,14.61,107,9.51,161.91,3.87,38.19-3.93,83.5-16.89,121.38-3.91,66.43,22.78,82.28,95,91.23,156.58l27.54,189.24" transform="translate(-95.65 45.56)"/><circle class="c" cx="521.35" cy="263.56" r="7.5"/><circle class="d" cx="418.36" cy="284.95" r="7.5"/><circle class="e" cx="549.86" cy="373.56" r="7.5"/><circle class="e" cx="566.86" cy="494.31" r="7.5"/><circle class="e" cx="173.07" cy="202.42" r="7.5"/><circle class="e" cx="358.35" cy="203.56" r="7.5"/><circle class="e" cx="61.56" cy="106.17" r="7.5"/><circle class="d" cx="650.69" cy="220.56" r="7.5"/><circle class="d" cx="770.35" cy="114.67" r="7.5"/><circle class="d" cx="261.33" cy="315.23" r="7.5"/><circle class="d" cx="100" cy="370.89" r="7.5"/><circle class="d" cx="10" cy="482.23" r="7.5"/></svg>